<svg width="16" height="15" xmlns="http://www.w3.org/2000/svg">
 <defs>
  <clipPath id="yjw3a">
   <path id="svg_1" d="m0,15l0,-15l16,0l0,15l-16,0zm8,-13c-3.164,0 -5.73,2.462 -5.73,5.5c0.001,3.037 2.566,5.5 5.73,5.5s5.729,-2.463 5.729,-5.5c0,-3.038 -2.565,-5.5 -5.73,-5.5l0.001,0z" fill="#fff"/>
  </clipPath>
 </defs>
 <g>
  <title>background</title>
  <rect fill="none" id="canvas_background" height="402" width="582" y="-1" x="-1"/>
 </g>
 <g>
  <title>Layer 1</title>
  <g id="svg_2">
   <g fill-opacity="0" id="svg_3">
    <path fill="#0fffff" id="svg_4" d="m8,2c-3.164,0 -5.73,2.462 -5.73,5.5c0.001,3.037 2.566,5.5 5.73,5.5s5.729,-2.463 5.729,-5.5c0,-3.038 -2.565,-5.5 -5.73,-5.5l0.001,0z"/>
    <path id="svg_5" clip-path="url("#yjw3a")" d="m8,2c-3.164,0 -5.73,2.462 -5.73,5.5c0.001,3.037 2.566,5.5 5.73,5.5s5.729,-2.463 5.729,-5.5c0,-3.038 -2.565,-5.5 -5.73,-5.5l0.001,0z" stroke-width="4" stroke-miterlimit="20" stroke-linejoin="round" stroke-linecap="round" stroke="#dedfe0" fill="#0fffff"/>
   </g>
  </g>
 </g>
</svg>